# xmcd
#
# Track frame offsets: 
#        150
#        21590
#        42712
#        63807
#        79200
#        89742
#        106222
#        123432
#        138057
#        150180
#        167362
#        182625
#        199512
#        216195
#
# Disc length: 3131 seconds
#
# Revision: 0
# Processed by: cddbd v1.5.2PL0 Copyright (c) Steve Scherf et al.
# Submitted via: ExactAudioCopy v0.99pb1
#
DISCID=b60c390e
DTITLE=VIA - Kiitos El‰m‰st‰
DYEAR=2001
DGENRE=Gospel
TTITLE0=Monet tuulet puhaltaa
TTITLE1=Psalmi 18
TTITLE2=Luotan Hyv‰‰n Paimeneen
TTITLE3=Syd‰men kaipaus
TTITLE4=Kiitos el‰m‰st‰
TTITLE5=Veren voimassa
TTITLE6=Onneni on sinussa
TTITLE7=Uutinen
TTITLE8=Sikerm‰
TTITLE9=Yst‰v‰lleni
TTITLE10=Pyh‰ Henki syd‰meeni saavu
TTITLE11=Kuinka kertoisin sen
TTITLE12=Valtaa mun syd‰mein Jeesus
TTITLE13=Voittaja
EXTD=
EXTT0=
EXTT1=
EXTT2=
EXTT3=
EXTT4=
EXTT5=
EXTT6=
EXTT7=
EXTT8=
EXTT9=
EXTT10=
EXTT11=
EXTT12=
EXTT13=
PLAYORDER=
